<svg viewBox="0 0 24 24" fill="none" xmlns="http://www.w3.org/2000/svg">
    <path d="M11.9999 1.99902C17.5236 1.99902 22.0014 6.47687 22.0014 12.0006C22.0014 17.5243 17.5236 22.0021 11.9999 22.0021C6.47614 22.0021 1.99829 17.5243 1.99829 12.0006C1.99829 6.47687 6.47614 1.99902 11.9999 1.99902ZM11.9999 3.49902C7.30457 3.49902 3.49829 7.3053 3.49829 12.0006C3.49829 16.6959 7.30457 20.5021 11.9999 20.5021C16.6951 20.5021 20.5014 16.6959 20.5014 12.0006C20.5014 7.3053 16.6951 3.49902 11.9999 3.49902ZM11.9964 5.99902C15.3091 5.99902 17.9945 8.68447 17.9945 11.9971C17.9945 15.3098 15.3091 17.9953 11.9964 17.9953C8.68374 17.9953 5.99829 15.3098 5.99829 11.9971C5.99829 8.68447 8.68374 5.99902 11.9964 5.99902Z" fill="#101010"/>
</svg>
